<svg version="1.1" viewBox="0 0 1920 286" xml:space="preserve" xmlns="http://www.w3.org/2000/svg"><defs> <style type="text/css"> .afiado_een{fill:#0B1719;} </style>  </defs><g transform="matrix(1.0065 0 0 1.0065 -384.31 -1351.6)" fill="#fff" stroke-miterlimit="20" stroke-width="0"><path d="m942.97 1343.2 91.902 147.27-25.575 48.476-41.086-0.3776v8e-4l41.083 0.3776-7.5872 14.382-33.496-14.76-42.047-0.3864 143.34 86.264 142.41-83.64-40-0.3671-31.182 13.724-34.238-63.694 90.751-147.27h-60.836l-67.804 110.27-64.511-110.27zm123.31 179.33h2.3007l6.1293 8.9758 22.3 32.658-27.558 12.129-28.378-12.504 19.8-32.41h8e-4z" style="paint-order:markers fill stroke"/><path d="m1263.8 1624.1v-190.58h72.957q20.659 0 34.338 6.514 13.772 6.4209 20.566 17.588 6.8862 11.167 6.8862 25.312 0 11.632-4.4668 19.914-4.4667 8.189-12.004 13.307t-16.843 7.3515v1.8612q10.143 0.5583 19.449 6.2348 9.3987 5.5834 15.354 15.82 5.9556 10.236 5.9556 24.753 0 14.796-7.1653 26.614-7.1654 11.725-21.589 18.518-14.424 6.7932-36.292 6.7932zm34.524-28.848h37.13q18.798 0 27.08-7.1654 8.3751-7.2585 8.3751-18.611 0-8.4682-4.1876-15.261-4.1875-6.8862-11.911-10.795-7.7237-4.0015-18.425-4.0015h-38.06zm0-80.68h34.152q8.9335 0 16.099-3.257 7.1654-3.3501 11.26-9.3988 4.1876-6.1417 4.1876-14.517 0-11.074-7.8168-18.239-7.7237-7.1654-22.985-7.1654h-34.896zm137.72 109.53v-190.58h123.95v28.941h-89.428v51.74h83.007v28.941h-83.007v52.019h90.172v28.941zm315.84-190.58v190.58h-30.709l-89.8-129.81h-1.582v129.81h-34.524v-190.58h30.895l89.707 129.91h1.675v-129.91zm165.18 60.859q-2.3265-7.5376-6.421-13.493-4.0014-6.0487-9.6779-10.329-5.5834-4.2807-12.842-6.421-7.2584-2.2333-15.82-2.2333-15.354 0-27.359 7.7237-12.004 7.7237-18.89 22.706-6.7932 14.889-6.7932 36.292 0 21.589 6.7932 36.571t18.89 22.799q12.097 7.7238 28.103 7.7238 14.517 0 25.125-5.5835 10.702-5.5834 16.471-15.82 5.7695-10.329 5.7695-24.195l7.8168 1.2097h-51.74v-26.986h77.33v22.892q0 24.474-10.422 42.341t-28.662 27.545q-18.239 9.5849-41.876 9.5849-26.335 0-46.249-11.818-19.821-11.911-30.988-33.78-11.074-21.961-11.074-52.112 0-23.078 6.514-41.224 6.6071-18.146 18.425-30.802 11.818-12.749 27.731-19.356 15.913-6.7001 34.617-6.7001 15.82 0 29.499 4.6529 13.679 4.5598 24.288 13.028 10.702 8.4682 17.588 20.1t9.0265 25.684zm88.686 129.72h-36.853l67.096-190.58h42.62l67.187 190.58h-36.851l-50.902-151.5h-1.4889zm1.2098-74.725h100.5v27.731h-100.5zm163.97 74.725v-190.58h34.524v161.64h83.937v28.941z" style="paint-order:markers fill stroke" aria-label="BENGAL"/><path d="m381.82 1626.7v-195.79h74.952q21.224 0 35.277 6.6921 14.149 6.5965 21.128 18.069 7.0745 11.472 7.0745 26.004 0 11.95-4.5889 20.459-4.5889 8.4129-12.333 13.671-7.7437 5.258-17.304 7.5525v1.912q10.421 0.5736 19.981 6.4053 9.6557 5.7361 15.774 16.252 6.1185 10.516 6.1185 25.43 0 15.201-7.3613 27.342-7.3613 12.046-22.18 19.025t-37.285 6.9789zm35.468-29.636h38.145q19.311 0 27.82-7.3613 8.6041-7.4569 8.6041-19.12 0-8.6998-4.3021-15.679-4.3021-7.0745-12.237-11.09-7.9349-4.1109-18.929-4.1109h-39.101zm0-82.886h35.086q9.1777 0 16.539-3.346 7.3613-3.4417 11.568-9.6558 4.3021-6.3096 4.3021-14.914 0-11.376-8.0305-18.738-7.9349-7.3613-23.614-7.3613h-35.851zm166.63 112.52h-37.858l68.929-195.79h43.785l69.024 195.79h-37.858l-52.294-155.64h-1.5296zm1.2428-76.768h103.25v28.489h-103.25zm135.18-119.02h40.057l47.896 86.615h1.912l47.896-86.615h40.057l-71.223 122.75v73.04h-35.373v-73.04z" style="paint-order:markers fill stroke" aria-label="BAY"/></g></svg>
